<svg xmlns="http://www.w3.org/2000/svg" xmlns:xlink="http://www.w3.org/1999/xlink" version="1.1" x="0px" y="0px" viewBox="0 0 512 640" style="enable-background:new 0 0 512 512;" xml:space="preserve"><g><path d="M141.5,213.7c24,0,43.5-19.5,43.5-43.5v-14.6c0-24-19.5-43.5-43.5-43.5S98,131.6,98,155.6v14.6   C98,194.2,117.5,213.7,141.5,213.7z M112,155.6c0-16.3,13.2-29.5,29.5-29.5s29.5,13.2,29.5,29.5v14.6c0,16.3-13.2,29.5-29.5,29.5   l0,0c-16.3,0-29.5-13.2-29.5-29.5L112,155.6L112,155.6z"/><path d="M185.5,225.7h-9.2c-3.1,0-5.9,2.1-6.7,5.1l-10,35.2l-5.4-9.7l6.4-20.4c0.7-2.1,0.3-4.4-1-6.2s-3.4-2.9-5.6-2.9h-23.3   c-2.2,0-4.3,1.1-5.6,2.9s-1.7,4.1-1,6.2l6.4,20.5l-4.3,8.3l-8.8-33.8c-0.8-3.1-3.6-5.2-6.8-5.2H100c-12.7,0-24.8,5.4-33.3,14.8   c-8.4,9.3-12.6,21.8-11.4,34.3v71.8c0,1.9,0.7,3.6,2.1,5c1.3,1.3,3.1,2,5,2l160.9,0c3.9,0,7-3.1,7-7v-71.8c1.2-12.5-3-25-11.4-34.3   C210.3,231.1,198.1,225.7,185.5,225.7z M144.3,240.8l-2.1,6.8l-2.1-6.8H144.3z M216.2,273.7c0,0.2,0,0.5,0,0.7v65.2l-146.9,0v-65.2   c0-0.2,0-0.5,0-0.7c-0.9-8.7,2-17.4,7.8-23.8c5.9-6.5,14.2-10.2,22.9-10.2h5l12,46.2c0.7,2.7,3,4.7,5.7,5.2c2.8,0.4,5.5-0.9,7-3.3   c0.1-0.1,0.2-0.3,0.2-0.4l12-23.2h0.3l13.1,23.4c1.4,2.5,4.1,3.9,6.9,3.5c2.8-0.3,5.1-2.3,5.9-5l13.2-46.4h3.9   c8.7,0,17.1,3.7,22.9,10.2C214.2,256.4,217.1,265.1,216.2,273.7z"/><path d="M258.3,180.6h66.8c3.9,0,7-3.1,7-7s-3.1-7-7-7h-66.8c-3.9,0-7,3.1-7,7S254.4,180.6,258.3,180.6z"/><path d="M385.1,227.9H258.3c-3.9,0-7,3.1-7,7s3.1,7,7,7h126.8c3.9,0,7-3.1,7-7S389,227.9,385.1,227.9z"/><path d="M385.1,289.1H258.3c-3.9,0-7,3.1-7,7s3.1,7,7,7h126.8c3.9,0,7-3.1,7-7S389,289.1,385.1,289.1z"/><path d="M449.9,128.1h-19.3v-18.7c0-20.4-16.6-37-37-37H62.1c-20.4,0-37,16.6-37,37v236.9c0,20.4,16.6,37,37,37h18.7v19.3   c0,20.4,16.6,37,37,37h332.1c20.4,0,37-16.6,37-37V165.1C486.9,144.7,470.3,128.1,449.9,128.1z M39.1,346.3V109.4   c0-12.7,10.3-23,23-23h331.6c12.7,0,23,10.3,23,23v236.9c0,12.7-10.3,23-23,23H62.1C49.4,369.3,39.1,359,39.1,346.3z M472.9,402.6   c0,12.7-10.3,23-23,23H117.8c-12.7,0-23-10.3-23-23v-19.3h298.9c20.4,0,37-16.6,37-37V142.1h19.3c12.7,0,23,10.3,23,23V402.6z"/></g><text x="0" y="527" fill="#000000" font-size="5px" font-weight="bold" font-family="'Helvetica Neue', Helvetica, Arial-Unicode, Arial, Sans-serif">Created by icongeek</text><text x="0" y="532" fill="#000000" font-size="5px" font-weight="bold" font-family="'Helvetica Neue', Helvetica, Arial-Unicode, Arial, Sans-serif">from the Noun Project</text></svg>